<svg viewBox="-6.914893617021306 79.875 265.95744680851067 351.44999999999993" fill="none" xmlns="http://www.w3.org/2000/svg" xmlns:xlink="http://www.w3.org/1999/xlink" overflow="visible" width="265.95744680851067px" height="351.44999999999993px"><g id="Master/Pose/Sitting"><g id="Head/Front" transform="translate(38 73) scale(1 1)"><g id="Head/Front/Bun and Mullet"><g id="Head"><path id="SKIN" fill-rule="evenodd" clip-rule="evenodd" d="M73.9354 75.2443C80.411 79.1475 86.7736 81.0333 89.7603 80.2635C97.2496 78.333 97.9382 50.9351 92.1433 40.1339C86.3485 29.3328 56.5583 24.625 55.0568 46.0255C54.5356 53.4529 57.6544 60.0814 62.2623 65.4901L54 104H78L73.9354 75.2443Z" fill="#915b3c"/></g><path id="hair" fill-rule="evenodd" clip-rule="evenodd" d="M82.6635 28.37C66 22.1431 52.932 34.1745 51.199 36.1553C49.3622 38.2548 48.1395 40.8784 47.2353 43.5467C46.2532 46.445 45.6454 49.4566 45.4209 52.5251C45.2077 55.4405 45.188 58.5235 45.8715 61.3767C46.5108 64.0448 47.8781 66.2337 50.1607 67.6223C51.2063 68.2584 52.3313 68.7363 53.4627 69.173C54.5778 69.6034 55.6963 70.0219 56.8643 70.2634C59.075 70.7203 61.6221 70.6418 63.325 68.8823C63.9387 68.2479 64.6137 67.4508 65.0614 66.6759C65.2224 66.3972 65.3195 66.215 65.1239 65.9426C64.8896 65.6164 64.5106 65.3664 64.2096 65.1112C62.493 63.6561 61.4304 61.7135 61.1626 59.4049C60.8908 57.0626 61.52 54.0393 63.7973 53.017C66.6084 51.7552 69.7043 53.2036 72.2028 54.5537C73.2647 50.806 75.445 47.4315 78.8634 45.7124C82.6452 43.8105 86.9848 43.5879 90.8712 41.9561C91.8839 41.5309 92.9154 41.0482 93.661 40.1818C93.9726 39.8197 94.3381 39.35 94.4625 38.871C94.626 38.242 94.2202 37.7145 93.9068 37.2241C92.245 34.6236 89.0105 30.7417 82.6635 28.37Z" fill="#b58143"/><circle id="Oval" cx="55" cy="25" r="15" fill="#b58143"/><path id="Path 5" fill-rule="evenodd" clip-rule="evenodd" d="M51.9333 66.1299C51.9333 66.1299 43.8321 85.2939 37.0032 91.6154C40 97.966 55.9055 97.2018 55.9055 97.2018L61.9025 69.141L51.9333 66.1299Z" fill="#b58143"/></g></g><g id="Lower Body/Sitting" transform="translate(-44 260) scale(1 1)"><g id="Lower Body/Sitting/Skinny Jeans 1"><g id="Seat"><g id="Seat_2"><path id="Seat Stuff" fill-rule="evenodd" clip-rule="evenodd" d="M92.6226 42H169.877L180 166H65L92.6226 42Z" fill="#C5CFD6"/><path id="Seat Stuff_2" fill-rule="evenodd" clip-rule="evenodd" d="M92.6226 42H116.383L130.604 166H65L92.6226 42Z" fill="black" fill-opacity="0.1"/></g></g><path id="LegBack" fill-rule="evenodd" clip-rule="evenodd" d="M212.323 66.5665C203.642 84.9781 190.077 129.672 190.077 129.672L201.593 134.934C201.593 134.934 230.814 87.9524 248.672 55.8364C247.84 63.0664 246.993 71.2061 246.208 79.7626C244.347 100.033 246.207 143.827 247.208 156.477C247.837 164.428 258.64 162.762 259.648 156.457C259.819 155.389 260.515 151.639 261.554 146.045C266.647 118.613 279.977 46.8178 280 29.2384C280.01 22.1647 266.19 15.8101 257.953 20.7561C252.296 14.7192 241.588 11.2397 235.436 21.212C231.525 27.5517 222.233 45.5497 212.323 66.5665Z" fill="#915b3c"/><path id="LegLower" fill-rule="evenodd" clip-rule="evenodd" d="M190.9 113.125L230.427 19.4873C239.897 4.25483 266.446 22.587 263.217 31.4217C255.885 51.4793 218.6 116.414 216.415 122.39L190.9 113.125Z" fill="#191847"/><path id="shoe" fill-rule="evenodd" clip-rule="evenodd" d="M191.664 124.185C190.971 123.241 189.63 123.017 188.734 123.771C187.099 125.146 184.748 127.264 183.899 128.734C182.547 131.076 180.733 136.021 180.733 136.021C183.45 137.59 229.578 164.222 229.578 164.222C229.578 164.222 235.116 159.027 231.304 156.157C227.491 153.286 225.012 151.315 225.012 151.315L208.152 128.087C207.821 127.631 207.179 127.538 206.733 127.882L203.23 130.579C203.23 130.579 198.409 130.159 196.035 128.788C194.589 127.953 192.824 125.767 191.664 124.185Z" fill="#E4E4E4"/><path id="shoe_2" fill-rule="evenodd" clip-rule="evenodd" d="M247.45 150.284C246.378 149.813 245.104 150.29 244.705 151.391C243.977 153.398 243 156.409 243 158.106C243 160.811 243.901 166 243.901 166C247.039 166 300.303 166 300.303 166C300.303 166 302.502 158.732 297.765 158.152C293.028 157.573 289.895 157.106 289.895 157.106L263.68 145.419C263.165 145.189 262.563 145.43 262.348 145.951L260.663 150.039C260.663 150.039 256.278 152.085 253.537 152.085C251.868 152.085 249.246 151.074 247.45 150.284Z" fill="#E4E4E4"/><path id="Leg and Butt" fill-rule="evenodd" clip-rule="evenodd" d="M282.77 36.433C282.77 63 270.154 124.97 270.146 130.82L243 130.841C243 130.841 248.96 47.8977 247.227 47.0042C245.493 46.1107 176.176 53.925 155.386 53.925C125.408 53.925 113.006 35.0204 112 0H171.386C183.478 1.29387 246.549 14.0153 269.972 18.3884C280 20.2606 282.77 29.1145 282.77 36.433Z" fill="#393f82"/></g></g><g id="Upper Body" transform="translate(-22 155) scale(1 1)"><g id="Upper Body/Long Sleeve"><path id="SKIN" fill-rule="evenodd" clip-rule="evenodd" d="M231.483 59.9252L192 65.3108L199.084 83L231.121 70.2987C244.93 71.6611 251.607 71.3331 251.153 69.3149C250.77 67.6131 249.302 67.0993 247.95 66.6261C246.897 66.2574 245.914 65.9134 245.569 65.0515C244.78 63.0832 249.269 59.0033 253.693 55.3152C258.117 51.6271 255.148 50.9484 253.281 51.0029C246.647 52.5579 239.381 55.532 231.483 59.9252ZM39.398 156.908C42.3285 150.963 67.9699 74.4497 67.9699 74.4497L89.8673 74.5319C89.8673 74.5319 53.8506 155.583 52.308 159.406C50.3041 164.372 53.708 171.587 56.0162 176.48C56.3733 177.237 56.7041 177.938 56.9847 178.567C53.782 180 52.2435 178.268 50.6216 176.442C48.7896 174.379 46.8512 172.197 42.288 174.319C40.525 175.14 38.8568 176.109 37.2269 177.057C31.5969 180.329 26.4249 183.336 19.3891 178.994C18.2737 178.306 17.0514 175.715 20.0047 173.69C27.3624 168.645 37.9654 159.815 39.398 156.908Z" fill="#784931"/><path id="Clothes Back" fill-rule="evenodd" clip-rule="evenodd" d="M127.949 5.00001L145.094 6.14217C149.317 44.3434 172.316 68.4728 223.811 60.304L230.652 109.499C182.523 115.719 140.313 96.4498 131.662 44.2785C129.423 30.7729 127.655 16.7178 127.949 5.00001Z" fill="#e87613"/><path id="Clothes" fill-rule="evenodd" clip-rule="evenodd" d="M42.4016 147C54.3053 83.664 79.4301 34.664 117.776 0H119.421H119.477L119.491 0.0159384L145.468 5.96528C145.468 37.1692 152.41 60.4845 159.084 82.9002C161.966 92.5803 164.798 102.093 167 112H96.8436C95.8554 123.351 95.2485 135.018 94.9322 147H42.4016Z" fill="#ffa434"/><path id="Shade" fill-rule="evenodd" clip-rule="evenodd" d="M96.8438 112C98.8558 88.8905 102.449 67.0899 108.388 46.5981C107.086 68.5123 106.725 95.6979 111.103 112H96.8438Z" fill="black" fill-opacity="0.1"/></g></g></g></svg>