<svg viewBox="9.042553191489361 -10.650000000000034 271.27659574468083 441.975" fill="none" xmlns="http://www.w3.org/2000/svg" xmlns:xlink="http://www.w3.org/1999/xlink" overflow="visible" width="271.27659574468083px" height="441.975px"><g id="Master/Pose/Standing"><g id="Head/Front" transform="translate(82 0) scale(1 1)"><g id="Head/Front/Airy"><g id="Head"><path id="SKIN" fill-rule="evenodd" clip-rule="evenodd" d="M73.9354 75.2443C80.411 79.1475 86.7736 81.0333 89.7603 80.2635C97.2496 78.333 97.9382 50.9351 92.1433 40.1339C86.3485 29.3328 56.5583 24.625 55.0568 46.0255C54.5356 53.4529 57.6544 60.0814 62.2623 65.4901L54 104H78L73.9354 75.2443Z" fill="#d4a181"/></g><path id="hair" fill-rule="evenodd" clip-rule="evenodd" d="M78.4639 27.6853C75.3008 27.1665 66.7839 26.8099 65.2133 26.8101C64.2096 26.8101 63.1218 27.0394 62.5273 26.1178C62.0405 25.3631 62.2189 24.0867 62.0736 23.2109C61.9049 22.1935 61.6652 21.1892 61.4229 20.1874C60.7331 17.3369 59.6901 14.625 58.2308 12.0788C55.4925 7.30188 51.4811 3.56011 46.4167 1.38278C40.8243 -1.02134 34.496 -1.57183 28.4805 -1.08419C22.0431 -0.562477 16.2159 1.56259 10.138 3.56241C4.34604 5.46806 -1.7204 6.21817 -7.77811 5.28756C-13.8815 4.35004 -18.4932 1.04203 -23.6413 -2.09768C-28.9115 -5.31199 -34.9343 -7.41426 -41.1646 -6.931C-46.9804 -6.47974 -52.3406 -4.07839 -57.1497 -0.870532C-61.6491 2.13081 -65.3617 5.74181 -67.4578 10.824C-69.7127 16.2909 -69.7106 22.2918 -66.0026 27.1233C-60.6279 34.1265 -50.6501 35.9376 -42.349 35.7575C-37.5475 35.6537 -32.8318 34.7772 -28.2986 33.1828C-22.2531 31.0564 -17.0288 27.4523 -11.373 24.528C-8.71872 23.1558 -5.97516 22.0288 -3.0994 21.217C-0.308797 20.4289 2.43981 20.0675 4.96645 21.7533C7.63931 23.5367 10.0344 25.2885 13.0922 26.4049C16.0256 27.476 19.1327 28.075 22.258 28.0509C28.3386 28.0039 34.3328 26.1093 40.2385 24.8402C45.0545 23.8056 50.2074 22.7743 55.1173 23.769C57.166 24.1841 60.1586 25.041 60.8986 27.1702C48.4442 29.4274 43.5527 44.8302 47.0638 56.1372C48.9588 62.24 60.3498 69.3742 64.7788 66.1658C67.5847 64.1333 65.8812 61.4648 64.7788 59.7033C62.6676 56.3299 61.9453 51.9967 65.8518 49.648C69.2215 47.6224 72.7646 52.4327 72.8316 52.4274C73.7577 52.3544 81.7604 47.8285 87.2742 41.2241C92.7135 41.5466 93.5387 37.96 92.2399 35.0269C90.9411 32.0938 82.8344 28.4024 78.4639 27.6853Z" fill="#b58143"/></g></g><g id="Lower Body/Standing" transform="translate(0 187) scale(1 1)"><g id="Lower Body/Standing/Skinny Jeans"><path id="Leg" fill-rule="evenodd" clip-rule="evenodd" d="M128 0L164.255 127.227L190.707 221H210L181.891 0H128Z" fill="#191847"/><path id="Leg" fill-rule="evenodd" clip-rule="evenodd" d="M118.304 0C117.466 65.5742 114.606 101.34 113.726 107.298C112.845 113.256 99.5322 151.156 73.7864 221H93.7727C126.549 153.997 144.846 116.096 148.663 107.298C152.479 98.4996 164.259 62.7336 182 0H118.304Z" fill="#393f82"/><path id="Shoe" fill-rule="evenodd" clip-rule="evenodd" d="M72 239L73 218L94 218C108.936 228.5 133 235 133 235V239H95L82 237V239H72Z" fill="#191847"/><path id="Shoe_2" fill-rule="evenodd" clip-rule="evenodd" d="M188 239L189 218L210 218C224.936 228.5 249 235 249 235V239H211L198 237V239H188Z" fill="#191847"/></g></g><g id="Upper Body" transform="translate(22 82) scale(1 1)"><g id="Upper Body/Pointing Forward"><path id="SKIN" fill-rule="evenodd" clip-rule="evenodd" d="M193.348 23.6899L158.638 42.7003L171.456 56.4577L196.677 33.3653C209.963 29.7037 216.039 27.0251 214.904 25.3294C213.948 23.8997 212.405 23.9494 210.985 23.9951C209.878 24.0307 208.845 24.064 208.22 23.3937C206.794 21.8628 209.515 16.5104 212.315 11.5416C215.114 6.57269 212.121 7.00525 210.409 7.7199C204.807 11.5123 199.12 16.8356 193.348 23.6899ZM228.246 50.3643L213 58.7399L213.868 74.0403C213.868 74.0403 223.743 66.9131 232.238 64.5444C243.07 61.5241 247.453 59.2177 252.746 52.4731C255.578 48.8645 257.982 41.6102 255.286 39.2477C254.252 38.3414 250.399 40.4824 246.468 42.667C243.472 44.3319 240.43 46.022 238.556 46.4078C236.034 46.9272 236.329 43.6574 236.565 41.0446C236.734 39.1697 236.873 37.633 235.918 38.0773C231.455 38.1538 228.246 50.3643 228.246 50.3643Z" fill="#ba8b72"/><g id="Group 3"><path id="Mask" fill-rule="evenodd" clip-rule="evenodd" d="M141.734 38.4654C153.892 38.337 170.104 35.7692 187.403 24.7888L194.196 39.9387C182.264 51.7804 165.486 61.5097 150.816 61.0977C139.255 60.7731 133.347 46.7892 141.734 38.4654Z" fill="#c21b15"/><mask id="mask0_410_5849f12fc37b-e2bd-4312-a182-d9076f6ed1df" style="mask-type:luminance" maskUnits="userSpaceOnUse" x="137" y="24" width="58" height="38" fill="#ffffff"><path id="Mask" fill-rule="evenodd" clip-rule="evenodd" d="M141.734 38.4654C153.892 38.337 170.104 35.7692 187.403 24.7888L194.196 39.9387C182.264 51.7804 165.486 61.5097 150.816 61.0977C139.255 60.7731 133.347 46.7892 141.734 38.4654Z" fill="#ffffff"/></mask><g mask="url(#mask0_410_5849f12fc37b-e2bd-4312-a182-d9076f6ed1df)"/></g><g id="Group 27"><path id="Mask" fill-rule="evenodd" clip-rule="evenodd" d="M108.945 142.259C97.3866 140.752 86.7664 139.367 80.4728 140.606C73.4113 117.673 79.2749 103.234 84.6879 89.9046C87.9502 81.871 91.0489 74.2405 91.0555 65.3966C91.0748 39.6422 111.754 0 114.797 0H115.67H139.783H142.544C143.784 15.9374 149.079 33.193 154.407 50.5596C155.652 54.6153 156.898 58.6769 158.095 62.7293C178.26 67.3065 223.036 51.3734 223.036 51.3734C223.036 51.3734 234.34 74.7586 233.487 84.7171C207.424 98.331 185.087 104.401 166.683 104.802C167.268 115.721 165.939 126.112 161.474 135.606C155.491 148.327 130.576 145.079 108.945 142.259Z" fill="#ff4133"/><mask id="mask1_410_5849f12fc37b-e2bd-4312-a182-d9076f6ed1df" style="mask-type:luminance" maskUnits="userSpaceOnUse" x="77" y="0" width="157" height="145" fill="#ffffff"><path id="Mask_2" fill-rule="evenodd" clip-rule="evenodd" d="M108.945 142.259C97.3866 140.752 86.7664 139.367 80.4728 140.606C73.4113 117.673 79.2749 103.234 84.6879 89.9046C87.9502 81.871 91.0489 74.2405 91.0555 65.3966C91.0748 39.6422 111.754 0 114.797 0H115.67H139.783H142.544C143.784 15.9374 149.079 33.193 154.407 50.5596C155.652 54.6153 156.898 58.6769 158.095 62.7293C178.26 67.3065 223.036 51.3734 223.036 51.3734C223.036 51.3734 234.34 74.7586 233.487 84.7171C207.424 98.331 185.087 104.401 166.683 104.802C167.268 115.721 165.939 126.112 161.474 135.606C155.491 148.327 130.576 145.079 108.945 142.259Z" fill="#ffffff"/></mask><g mask="url(#mask1_410_5849f12fc37b-e2bd-4312-a182-d9076f6ed1df)"/></g></g></g></g></svg>