<svg viewBox="83.51063829787233 10.649999999999977 196.80851063829792 420.675" fill="none" xmlns="http://www.w3.org/2000/svg" xmlns:xlink="http://www.w3.org/1999/xlink" overflow="visible" width="196.80851063829792px" height="420.675px"><g id="Master/Pose/Standing"><g id="Head/Front" transform="translate(82 0) scale(1 1)"><g id="Head/Front/Rad"><g id="Head"><path id="SKIN" fill-rule="evenodd" clip-rule="evenodd" d="M73.9354 75.2443C80.411 79.1475 86.7736 81.0333 89.7603 80.2635C97.2496 78.333 97.9382 50.9351 92.1433 40.1339C86.3485 29.3328 56.5583 24.625 55.0568 46.0255C54.5356 53.4529 57.6544 60.0814 62.2623 65.4901L54 104H78L73.9354 75.2443Z" fill="#b28b67"/></g><path id="hair" fill-rule="evenodd" clip-rule="evenodd" d="M44.5934 38.9017C43.8182 38.1335 43.3954 37.0371 43.0296 35.9959C42.6497 34.9144 42.2806 33.8217 42.0284 32.696C41.5245 30.4468 41.5197 27.8602 43.1243 26.1136C44.4111 24.7131 46.342 24.0849 48.124 23.9484C49.3113 23.8573 50.5306 24.0236 51.6687 24.3978C52.7979 24.7689 53.7713 25.5086 54.8659 25.9678C54.9077 23.5439 55.3229 21.0077 56.5526 18.9381C57.7359 16.9468 59.6225 15.8293 61.771 15.5337C63.9762 15.2303 66.1539 15.7463 68.1281 16.8139C68.6223 17.0813 69.112 17.3614 69.5806 17.6784C69.973 17.9439 70.3809 18.2636 70.8413 18.3716C71.3545 18.4921 71.6089 18.1957 71.9425 17.8212C72.3336 17.3822 72.7742 16.9955 73.2404 16.6527C75.3022 15.1373 78.0073 14.5142 80.3959 15.4225C81.4964 15.8411 82.5666 16.5518 83.3132 17.5313C83.9788 18.4043 84.4536 19.7892 85.3721 20.3975C85.7619 20.6557 86.0372 20.3136 86.3921 20.0608C86.9253 19.6809 87.4337 19.2617 87.9732 18.8921C88.7311 18.3729 89.5517 17.9845 90.4304 17.7812C91.7168 17.4836 93.4945 17.5534 93.8623 19.2382C94.0003 19.871 93.8945 20.5479 93.8499 21.1855C93.7886 22.0611 93.7248 22.9363 93.6487 23.8106C93.591 24.4744 93.518 25.1155 93.3928 25.7674C93.3259 26.1148 93.1168 26.7626 93.2658 27.1106C93.452 27.5455 94.3114 27.2982 94.6786 27.3134C95.4038 27.3433 96.132 27.4705 96.8026 27.7804C97.3222 28.0206 97.8686 28.3738 98.0879 28.9694C98.2228 29.3353 98.1872 29.7112 98.1235 30.0876C98.0472 30.5393 98.1345 30.779 98.1916 31.2348C99.1656 30.7552 102.541 29.6896 102.965 31.4351C103.107 32.0163 102.785 32.673 102.539 33.1632C102.108 34.0229 101.543 34.8087 100.966 35.5581C99.7614 37.1214 98.3234 38.4698 96.7761 39.623C98.5889 40.4289 99.0621 42.806 97.4926 44.2223C96.7996 44.8476 95.8679 44.9868 94.9938 44.9468C94.6738 44.9321 94.2126 44.8092 93.9609 44.8649C93.8254 44.8948 93.6803 45.0097 93.4926 45.0225C92.259 45.107 90.8664 44.8098 89.6605 44.536C87.5117 44.0482 85.4773 43.0302 83.8161 41.4797C83.3899 41.082 83.0379 40.853 82.4643 40.8589C81.9616 40.864 81.4685 41.0018 80.9663 41.0145C79.6376 41.0484 78.4395 40.3989 77.2057 39.9665C77.1301 41.6333 76.6555 43.4691 75.9736 44.9687C75.4176 46.1915 74.2565 46.3692 73.1155 46.4765C69.467 46.8198 65.8056 46.4367 62.1524 46.4417C65.6888 47.2411 69.343 47.5705 72.848 48.5112C74.4323 48.9363 73.2225 50.004 72.5451 50.7443C71.4296 51.9632 70.6002 53.4735 70.025 55.0646C68.295 52.8096 65.2373 51.3238 62.5283 52.0165C59.5351 52.7818 57.4274 56.8296 59.3415 59.7397C60.4527 61.429 62.4594 62.0811 64.1291 62.8069C62.8265 64.1612 62.5115 66.1614 61.7275 67.8462C61.3408 68.6771 60.798 69.6165 59.9333 69.9061C59.6134 70.0132 59.2382 70.0224 58.9858 70.2832C58.6731 70.6061 58.5987 70.9671 58.1994 71.2446C56.6062 72.3523 54.1174 72.2669 52.7052 70.8214C51.4281 69.5141 51.7604 67.4454 52.827 66.12C51.1292 65.4123 48.036 64.5021 48.7108 61.8571C45.0319 61.6128 36.0996 55.6462 41.0372 51.2863C38.3274 49.7548 35.8379 46.012 37.5785 42.7127C38.9188 40.1721 42.0359 39.0364 44.5934 38.9017" fill="#4a312c"/></g></g><g id="Lower Body/Standing" transform="translate(0 187) scale(1 1)"><g id="Lower Body/Standing/Shorts"><path id="SKIN" fill-rule="evenodd" clip-rule="evenodd" d="M128 0L165.631 123.024L183.86 227.648H198.153L178.891 0H128Z" fill="#b28b67"/><path id="Shadow" fill-rule="evenodd" clip-rule="evenodd" d="M128 0L165.631 123.024L183.86 227.648H198.153L178.891 0H128Z" fill="black" fill-opacity="0.1"/><path id="SKIN" fill-rule="evenodd" clip-rule="evenodd" d="M114.538 0C117.094 67.5469 114.086 102.389 113.514 108.526C112.942 114.663 105.108 154.455 86.5637 229.708L101.794 224.478C131.102 155.459 141.089 119.589 144.45 110.526C147.812 101.463 156.739 64.6208 171.233 0H114.538Z" fill="#b28b67"/><g id="Left [shoe]"><path id="shoe" fill-rule="evenodd" clip-rule="evenodd" d="M89.4496 223.284C88.3779 222.813 87.1043 223.29 86.7051 224.391C85.977 226.398 85 229.409 85 231.106C85 233.811 85.9012 239 85.9012 239C89.0392 239 142.303 239 142.303 239C142.303 239 144.502 231.732 139.765 231.152C135.028 230.573 131.895 230.106 131.895 230.106L105.68 218.419C105.165 218.189 104.563 218.43 104.348 218.951L102.663 223.039C102.663 223.039 98.2782 225.085 95.5367 225.085C93.8677 225.085 91.2457 224.074 89.4496 223.284Z" fill="#E4E4E4"/></g><g id="Right [shoe]"><path id="shoe_2" fill-rule="evenodd" clip-rule="evenodd" d="M183.45 223.284C182.378 222.813 181.104 223.29 180.705 224.391C179.977 226.398 179 229.409 179 231.106C179 233.811 179.901 239 179.901 239C183.039 239 236.303 239 236.303 239C236.303 239 238.502 231.732 233.765 231.152C229.028 230.573 225.895 230.106 225.895 230.106L199.68 218.419C199.165 218.189 198.563 218.43 198.348 218.951L196.663 223.039C196.663 223.039 192.278 225.085 189.537 225.085C187.868 225.085 185.246 224.074 183.45 223.284Z" fill="#E4E4E4"/></g><path id="Bottom" fill-rule="evenodd" clip-rule="evenodd" d="M123 0L139 62.6795H187.87L180.584 0H123Z" fill="#191847"/><path id="Bottom" fill-rule="evenodd" clip-rule="evenodd" d="M114 0C106.103 23.6708 111 62.6795 111 62.6795H160.87L174.584 0L114 0Z" fill="#393f82"/></g></g><g id="Upper Body" transform="translate(22 82) scale(1 1)"><g id="Upper Body/Pointing Forward"><path id="SKIN" fill-rule="evenodd" clip-rule="evenodd" d="M193.348 23.6899L158.638 42.7003L171.456 56.4577L196.677 33.3653C209.963 29.7037 216.039 27.0251 214.904 25.3294C213.948 23.8997 212.405 23.9494 210.985 23.9951C209.878 24.0307 208.845 24.064 208.22 23.3937C206.794 21.8628 209.515 16.5104 212.315 11.5416C215.114 6.57269 212.121 7.00525 210.409 7.7199C204.807 11.5123 199.12 16.8356 193.348 23.6899ZM228.246 50.3643L213 58.7399L213.868 74.0403C213.868 74.0403 223.743 66.9131 232.238 64.5444C243.07 61.5241 247.453 59.2177 252.746 52.4731C255.578 48.8645 257.982 41.6102 255.286 39.2477C254.252 38.3414 250.399 40.4824 246.468 42.667C243.472 44.3319 240.43 46.022 238.556 46.4078C236.034 46.9272 236.329 43.6574 236.565 41.0446C236.734 39.1697 236.873 37.633 235.918 38.0773C231.455 38.1538 228.246 50.3643 228.246 50.3643Z" fill="#997659"/><g id="Group 3"><path id="Mask" fill-rule="evenodd" clip-rule="evenodd" d="M141.734 38.4654C153.892 38.337 170.104 35.7692 187.403 24.7888L194.196 39.9387C182.264 51.7804 165.486 61.5097 150.816 61.0977C139.255 60.7731 133.347 46.7892 141.734 38.4654Z" fill="#e87613"/><mask id="mask0_410_5849f12fc37b-e2bd-4312-a182-d9076f6ed1df" style="mask-type:luminance" maskUnits="userSpaceOnUse" x="137" y="24" width="58" height="38" fill="#ffffff"><path id="Mask" fill-rule="evenodd" clip-rule="evenodd" d="M141.734 38.4654C153.892 38.337 170.104 35.7692 187.403 24.7888L194.196 39.9387C182.264 51.7804 165.486 61.5097 150.816 61.0977C139.255 60.7731 133.347 46.7892 141.734 38.4654Z" fill="#ffffff"/></mask><g mask="url(#mask0_410_5849f12fc37b-e2bd-4312-a182-d9076f6ed1df)"/></g><g id="Group 27"><path id="Mask" fill-rule="evenodd" clip-rule="evenodd" d="M108.945 142.259C97.3866 140.752 86.7664 139.367 80.4728 140.606C73.4113 117.673 79.2749 103.234 84.6879 89.9046C87.9502 81.871 91.0489 74.2405 91.0555 65.3966C91.0748 39.6422 111.754 0 114.797 0H115.67H139.783H142.544C143.784 15.9374 149.079 33.193 154.407 50.5596C155.652 54.6153 156.898 58.6769 158.095 62.7293C178.26 67.3065 223.036 51.3734 223.036 51.3734C223.036 51.3734 234.34 74.7586 233.487 84.7171C207.424 98.331 185.087 104.401 166.683 104.802C167.268 115.721 165.939 126.112 161.474 135.606C155.491 148.327 130.576 145.079 108.945 142.259Z" fill="#ffa434"/><mask id="mask1_410_5849f12fc37b-e2bd-4312-a182-d9076f6ed1df" style="mask-type:luminance" maskUnits="userSpaceOnUse" x="77" y="0" width="157" height="145" fill="#ffffff"><path id="Mask_2" fill-rule="evenodd" clip-rule="evenodd" d="M108.945 142.259C97.3866 140.752 86.7664 139.367 80.4728 140.606C73.4113 117.673 79.2749 103.234 84.6879 89.9046C87.9502 81.871 91.0489 74.2405 91.0555 65.3966C91.0748 39.6422 111.754 0 114.797 0H115.67H139.783H142.544C143.784 15.9374 149.079 33.193 154.407 50.5596C155.652 54.6153 156.898 58.6769 158.095 62.7293C178.26 67.3065 223.036 51.3734 223.036 51.3734C223.036 51.3734 234.34 74.7586 233.487 84.7171C207.424 98.331 185.087 104.401 166.683 104.802C167.268 115.721 165.939 126.112 161.474 135.606C155.491 148.327 130.576 145.079 108.945 142.259Z" fill="#ffffff"/></mask><g mask="url(#mask1_410_5849f12fc37b-e2bd-4312-a182-d9076f6ed1df)"/></g></g></g></g></svg>