<svg viewBox="-1.5957446808510838 10.649999999999977 313.8297872340426 420.675" fill="none" xmlns="http://www.w3.org/2000/svg" xmlns:xlink="http://www.w3.org/1999/xlink" overflow="visible" width="313.8297872340426px" height="420.675px"><g id="Master/Pose/Standing"><g id="Head/Front" transform="translate(82 0) scale(1 1)"><g id="Head/Front/Afro"><ellipse id="Hair Back" cx="64.4157" cy="45.3534" rx="34.8346" ry="32.3534" fill="#e8e1e1"/><g id="Head"><path id="SKIN" fill-rule="evenodd" clip-rule="evenodd" d="M73.9354 75.2443C80.411 79.1475 86.7736 81.0333 89.7603 80.2635C97.2496 78.333 97.9382 50.9351 92.1433 40.1339C86.3485 29.3328 56.5583 24.625 55.0568 46.0255C54.5356 53.4529 57.6544 60.0814 62.2623 65.4901L54 104H78L73.9354 75.2443Z" fill="#dcae92"/></g><path id="Hair" fill-rule="evenodd" clip-rule="evenodd" d="M56.6167 31C38.2335 49 56.687 68.1318 61.7432 68.1318C62.0695 65.5347 63.0651 63.0084 64.5239 60.6039C63.7492 59.6005 63.29 58.3525 63.29 57C63.29 53.6863 66.0464 51 69.4466 51C70.5086 51 71.5077 51.262 72.3797 51.7234C79.7498 45.4379 88.9934 41.0561 93.5831 40.1945C101.566 38.696 74.9999 13 56.6167 31Z" fill="#e8e1e1"/></g></g><g id="Lower Body/Standing" transform="translate(0 187) scale(1 1)"><g id="Lower Body/Standing/Jogging"><path id="SKIN" fill-rule="evenodd" clip-rule="evenodd" d="M130 0L204.306 124.227L260.015 229.25H272.014L178.674 0L130 0Z" fill="#cccccc"/><g id="Right [shoe]"><path id="shoe" fill-rule="evenodd" clip-rule="evenodd" d="M255.45 223.284C254.378 222.813 253.104 223.29 252.705 224.391C251.977 226.398 251 229.409 251 231.106C251 233.811 251.901 239 251.901 239C255.039 239 308.303 239 308.303 239C308.303 239 310.502 231.732 305.765 231.152C301.028 230.573 297.895 230.106 297.895 230.106L271.68 218.419C271.165 218.189 270.563 218.43 270.348 218.951L268.663 223.039C268.663 223.039 264.278 225.085 261.537 225.085C259.868 225.085 257.246 224.074 255.45 223.284Z" fill="#E4E4E4"/></g><path id="Pant" fill-rule="evenodd" clip-rule="evenodd" d="M244.543 212.433L267.683 205.433C267.683 205.433 252.476 159.971 230.405 105.374C208.335 50.7778 183 0 183 0H117.644C117.644 0 145.811 64.2315 177.366 116.725C208.921 169.219 244.543 212.433 244.543 212.433Z" fill="#56919c"/><path id="SKIN" fill-rule="evenodd" clip-rule="evenodd" d="M125.117 0C118.104 43.6542 104.577 99.4275 103.301 101.149C102.45 102.296 71.8127 112.562 11.3899 131.947L13.9818 142.528C86.0359 132.132 124.002 124.066 127.881 118.331C133.699 109.728 162.749 41.7631 174 0H125.117Z" fill="#dcae92"/><path id="Pant" fill-rule="evenodd" clip-rule="evenodd" d="M32.6294 122.8L37.1948 139.842C91.087 144.569 124.108 141.153 136.258 129.596C148.407 118.039 162.254 74.84 177.799 0H115.478C105.629 61.2839 100.123 93.2121 98.96 95.7848C97.7966 98.3574 75.6864 107.363 32.6294 122.8Z" fill="#89c5cc"/><g id="Left [shoe]"><path id="shoe_2" fill-rule="evenodd" clip-rule="evenodd" d="M15.9311 130.074C16.2095 128.937 15.5182 127.765 14.3648 127.563C12.2611 127.195 9.12692 126.756 7.45574 127.05C4.7919 127.52 -0.162158 129.309 -0.162158 129.309C0.382733 132.399 9.63191 184.854 9.63191 184.854C9.63191 184.854 17.1715 185.757 16.9197 180.991C16.6679 176.226 16.5838 173.059 16.5838 173.059L23.5408 145.213C23.6774 144.667 23.3357 144.115 22.7854 143.994L18.4673 143.044C18.4673 143.044 15.691 139.081 15.215 136.381C14.9252 134.738 15.4647 131.98 15.9311 130.074Z" fill="#E4E4E4"/></g></g></g><g id="Upper Body" transform="translate(22 82) scale(1 1)"><g id="Upper Body/Jacket"><path id="SKIN" fill-rule="evenodd" clip-rule="evenodd" d="M222.372 116.758L194.044 89.1225L184.636 105.402L214.093 122.77C221.479 134.405 225.817 139.432 227.107 137.852C228.195 136.519 227.696 135.058 227.237 133.713C226.879 132.665 226.546 131.687 227.004 130.894C228.051 129.082 233.965 130.119 239.535 131.344C245.106 132.568 243.817 129.832 242.633 128.404C237.368 124.155 230.615 120.273 222.372 116.758ZM55.398 156.908C58.3285 150.963 68.308 93.0199 68.308 93.0199L89.2054 93.1021C89.2054 93.1021 69.8506 155.583 68.308 159.406C66.3041 164.372 69.708 171.587 72.0162 176.48C72.3733 177.237 72.7041 177.938 72.9847 178.567C69.782 180 68.2435 178.268 66.6216 176.442C64.7896 174.379 62.8512 172.197 58.288 174.319C56.525 175.14 54.8568 176.109 53.2269 177.057C47.5969 180.329 42.4249 183.336 35.3891 178.994C34.2737 178.306 33.0514 175.715 36.0047 173.69C43.3624 168.645 53.9654 159.815 55.398 156.908Z" fill="#dcae92"/><path id="Coat Back" fill-rule="evenodd" clip-rule="evenodd" d="M127.695 5.33202L136.342 3.84886C151.23 41.0391 177.222 74.8311 214.318 105.225L186.286 139.281C149.194 96.0046 126.33 51.3548 127.695 5.33202Z" fill="#e87613"/><path id="Shirt" fill-rule="evenodd" clip-rule="evenodd" d="M90 114H167C167 114 140.241 48.9377 140.241 3.46073L117.014 0C98.7599 29.3584 93.6048 65.5046 90 114Z" fill="#C7D1D9"/><path id="Coat Front" fill-rule="evenodd" clip-rule="evenodd" d="M55 147C63.4209 51.9959 116.504 0 116.504 0L116.522 0.0164189C116.525 0.010945 116.529 0.00547202 116.532 0H118.048C120.769 0.0937097 126.338 0.337673 126.338 0.337673L131.95 16.3769C132.841 45.7102 142.351 134.606 142.351 134.606H91.9499C92.0356 138.682 92.2255 142.815 92.5306 147H55Z" fill="#ffa434"/><path id="Shade" fill-rule="evenodd" clip-rule="evenodd" d="M91.9584 135C91.5561 117.25 93.1308 100.584 95.7576 85.5019C97.1315 103.399 100.003 124.933 106 135H91.9584Z" fill="black" fill-opacity="0.1"/><path id="Light" fill-rule="evenodd" clip-rule="evenodd" d="M103.111 104L128 92.4293V104H103.111Z" fill="white" fill-opacity="0.2"/></g></g></g></svg>